<?xml version="1.0" encoding="UTF-8"?>
<svg width="35px" height="35px" viewBox="0 0 35 35" version="1.1" xmlns="http://www.w3.org/2000/svg" xmlns:xlink="http://www.w3.org/1999/xlink">
    <!-- Generator: Sketch 48.2 (47327) - http://www.bohemiancoding.com/sketch -->
    <title>facebook button</title>
    <desc>Created with Sketch.</desc>
    <defs></defs>
    <g id="Header-RTL---Default-Copy" stroke="none" stroke-width="1" fill="none" fill-rule="evenodd" transform="translate(-208.000000, -2008.000000)">
        <g id="footer" transform="translate(0.000000, 1991.000000)">
            <g id="Group-38" transform="translate(159.000000, 17.000000)">
                <g id="facebook-button" transform="translate(49.000000, 0.000000)">
                    <rect id="Mask" fill="#3E539E" x="0" y="0" width="35" height="35" rx="17.5"></rect>
                    <path d="M19.2183759,27.3128737 L19.2183759,18.5033887 L22.4972151,18.5033887 L22.988071,15.0701096 L19.2183759,15.0701096 L19.2183759,12.8781987 C19.2183759,11.8841834 19.5243678,11.2067746 21.1049372,11.2067746 L23.1208669,11.2059196 L23.1208669,8.13528447 C22.7721411,8.09352188 21.5755201,8 20.1833881,8 C17.2769023,8 15.2872255,9.59993448 15.2872255,12.5382447 L15.2872255,15.0701096 L12,15.0701096 L12,18.5033887 L15.2872255,18.5033887 L15.2872255,27.3128737 L19.2183759,27.3128737" id="path162" fill="#FFFFFF"></path>
                </g>
            </g>
        </g>
    </g>
</svg>