<?xml version="1.0" encoding="UTF-8"?>
<svg width="35px" height="35px" viewBox="0 0 35 35" version="1.1" xmlns="http://www.w3.org/2000/svg" xmlns:xlink="http://www.w3.org/1999/xlink">
    <!-- Generator: Sketch 48.2 (47327) - http://www.bohemiancoding.com/sketch -->
    <title>G+ button</title>
    <desc>Created with Sketch.</desc>
    <defs></defs>
    <g id="Header-RTL---Default-Copy" stroke="none" stroke-width="1" fill="none" fill-rule="evenodd" transform="translate(-159.000000, -2008.000000)">
        <g id="footer" transform="translate(0.000000, 1991.000000)">
            <g id="Group-38" transform="translate(159.000000, 17.000000)">
                <g id="G+-button">
                    <rect id="Rectangle-105" fill="#DC4A3D" x="0" y="0" width="35" height="35" rx="17.5"></rect>
                    <path d="M28.6580734,19.1071051 L28.6580734,21.7856654 L26.744816,21.7856654 L26.744816,19.1071051 L23.9897254,19.1071051 L23.9897254,17.1938477 L26.744816,17.1938477 L26.744816,14.4387571 L28.6580734,14.4387571 L28.6580734,17.1938477 L31.3366337,17.1938477 L31.3366337,19.1071051 L28.6580734,19.1071051 Z M14.7295597,19.2601656 L14.7295597,16.1989539 C14.7295597,16.1989539 17.6992413,16.2029334 18.90842,16.2029334 C18.2536268,14.218434 17.2354677,13.1377421 14.7295597,13.1377421 C12.1935677,13.1377421 10.2142724,15.1935677 10.2142724,17.7295597 C10.2142724,20.2655441 12.1935677,22.3213774 14.7295597,22.3213774 C16.0703705,22.3213774 16.9363108,21.8501039 17.7306187,21.1932443 C18.3664324,21.829058 18.3133204,21.9196699 19.9309412,23.4472911 C18.5577581,24.6971839 16.7326637,25.4591195 14.7295597,25.4591195 C10.460631,25.4591195 7,21.9984961 7,17.7295597 C7,13.4606923 10.460631,10 14.7295597,10 C21.1104261,10 22.670037,15.5560994 22.1529983,19.2601656 L14.7295597,19.2601656 L14.7295597,19.2601656 Z" id="path14" fill="#FFFFFF" transform="translate(19.168317, 17.729560) scale(1, -1) translate(-19.168317, -17.729560) "></path>
                </g>
            </g>
        </g>
    </g>
</svg>