<?xml version="1.0" encoding="UTF-8" standalone="no"?>
<svg width="28px" height="20px" viewBox="0 0 28 20" version="1.1" xmlns="http://www.w3.org/2000/svg" xmlns:xlink="http://www.w3.org/1999/xlink">
    <!-- Generator: Sketch 3.8.3 (29802) - http://www.bohemiancoding.com/sketch -->
    <title>amex</title>
    <desc>Created with Sketch.</desc>
    <defs></defs>
    <g id="Symbols" stroke="none" stroke-width="1" fill="none" fill-rule="evenodd">
        <g id="footer-payment" transform="translate(-317.000000, -14.000000)">
            <g id="footer">
                <g id="cards" transform="translate(317.000000, 14.000000)">
                    <g id="amex">
                        <path d="M28,17.3333333 C28,18.806 26.806,20 25.3333333,20 L2.66666667,20 C1.194,20 0,18.806 0,17.3333333 L0,2.66666667 C0,1.194 1.194,0 2.66666667,0 L25.3333333,0 C26.806,0 28,1.194 28,2.66666667 L28,17.3333333 L28,17.3333333 Z" id="Shape" fill="#1976D2"></path>
                        <g id="Group" transform="translate(2.666667, 7.333333)" fill="#FFFFFF">
                            <path d="M10.17,0 L8.76133333,3.122 L7.35933333,0 L5.56266667,0 L5.56266667,4.484 L3.56066667,0 L2.04466667,0 L0,4.654 L1.21,4.654 L1.65733333,3.61533333 L3.94533333,3.61533333 L4.4,4.654 L6.71,4.654 L6.71,1.19733333 L8.24266667,4.654 L9.28466667,4.654 L10.852,1.25733333 L10.852,4.654 L12,4.654 L12,0 L10.17,0 L10.17,0 Z M2.09,2.61 L2.774,0.983333333 L3.48466667,2.61 L2.09,2.61 L2.09,2.61 Z" id="Shape"></path>
                            <path d="M20.5886667,2.27533333 L22.6666667,0.012 L21.1886667,0.012 L19.8593333,1.45466667 L18.5733333,0 L14,0 L14,4.65466667 L18.4233333,4.65466667 L19.818,3.114 L21.178,4.66666667 L22.6513333,4.66666667 L20.5886667,2.27533333 L20.5886667,2.27533333 Z M17.8186667,3.67733333 L15.1446667,3.67733333 L15.1446667,2.75666667 L17.7033333,2.75666667 L17.7033333,1.87466667 L15.1446667,1.87466667 L15.1446667,1.00266667 L17.9673333,1.01066667 L19.096,2.27533333 L17.8186667,3.67733333 L17.8186667,3.67733333 Z" id="Shape"></path>
                        </g>
                    </g>
                </g>
            </g>
        </g>
    </g>
</svg>