<?xml version="1.0" encoding="UTF-8"?>
<svg width="39px" height="28px" viewBox="0 0 39 28" version="1.1" xmlns="http://www.w3.org/2000/svg" xmlns:xlink="http://www.w3.org/1999/xlink">
    <!-- Generator: Sketch 49.1 (51147) - http://www.bohemiancoding.com/sketch -->
    <title>visa</title>
    <desc>Created with Sketch.</desc>
    <defs></defs>
    <g id="Page-1" stroke="none" stroke-width="1" fill="none" fill-rule="evenodd">
        <g id="Payment-page-Greece---step1" transform="translate(-441.000000, -877.000000)">
            <g id="Group-8" transform="translate(161.000000, 857.000000)">
                <g id="Group-2" transform="translate(239.000000, 20.000000)">
                    <g id="visa" transform="translate(41.000000, 0.000000)">
                        <path d="M39,24.2666667 C39,26.3284 37.3369286,28 35.2857143,28 L3.71428571,28 C1.66307143,28 0,26.3284 0,24.2666667 L0,3.73333333 C0,1.6716 1.66307143,0 3.71428571,0 L35.2857143,0 C37.3369286,0 39,1.6716 39,3.73333333 L39,24.2666667 L39,24.2666667 Z" id="Shape" fill="#D5D5D5"></path>
                        <path d="M38,23.5333333 C38,25.4478 36.4222143,27 34.4761905,27 L4.52380952,27 C2.57778571,27 1,25.4478 1,23.5333333 L1,4.46666667 C1,2.5522 2.57778571,1 4.52380952,1 L34.4761905,1 C36.4222143,1 38,2.5522 38,4.46666667 L38,23.5333333 L38,23.5333333 Z" id="Shape-Copy" fill="#FFFFFF"></path>
                        <g id="Group" transform="translate(5.358481, 8.845266)" fill="#1565C0">
                            <path d="M6.26400903,0.871696219 L3.97493476,7.69882101 C3.97493476,7.69882101 3.39351338,4.81089144 3.33598143,4.44826581 C2.03279558,1.47491 0.109833724,1.64053229 0.109833724,1.64053229 L2.37624389,10.4603546 L2.37624389,10.4586112 L5.13167564,10.4586112 L8.94185982,0.871696219 L6.26400903,0.871696219 L6.26400903,0.871696219 Z" id="Shape"></path>
                            <polygon id="Shape" points="8.44586467 10.4603546 10.9485045 10.4603546 12.4617692 0.871696219 9.92774824 0.871696219"></polygon>
                            <path d="M26.1578602,0.871696219 L23.5244659,0.871696219 L19.4187767,10.4603546 L21.9048543,10.4603546 L22.4174117,9.09091987 L25.5520313,9.09091987 L25.8187703,10.4603546 L28.0965125,10.4603546 L26.1578602,0.871696219 L26.1578602,0.871696219 Z M23.1112819,7.25948612 L24.4737431,3.63584493 L25.1867906,7.25948612 L23.1112819,7.25948612 L23.1112819,7.25948612 Z" id="Shape"></path>
                            <path d="M16.0121879,3.6663543 C16.0121879,3.13810639 16.4462926,2.7449714 17.6910748,2.7449714 C18.5000089,2.7449714 19.4266219,3.33249465 19.4266219,3.33249465 L19.8328324,1.31974808 C19.8328324,1.31974808 18.6490689,0.870824523 17.4870979,0.870824523 C14.855447,0.870824523 13.498216,2.12955386 13.498216,3.72301455 C13.498216,6.60484225 16.9666952,6.20996387 16.9666952,7.69010405 C16.9666952,7.94376765 16.7653334,8.5304192 15.3209328,8.5304192 C13.8721736,8.5304192 12.9159229,7.99955621 12.9159229,7.99955621 L12.4844333,9.93123503 C12.4844333,9.93123503 13.4110463,10.4594829 15.2015104,10.4594829 C16.9963329,10.4594829 19.4858973,9.11707076 19.4858973,7.18887872 C19.4858973,4.86929508 16.0121879,4.70192941 16.0121879,3.6663543 L16.0121879,3.6663543 Z" id="Shape"></path>
                        </g>
                        <path d="M9.03006557,14.8991962 L8.18800703,10.7603826 C8.18800703,10.7603826 7.80707578,9.86340716 6.81682887,9.86340716 L2.94649766,9.86340716 C2.94649766,9.86340716 7.88116996,11.3208832 9.03006557,14.8991962 L9.03006557,14.8991962 Z" id="Shape" fill="#FFC107"></path>
                    </g>
                </g>
            </g>
        </g>
    </g>
</svg>