<?xml version="1.0" encoding="UTF-8"?>
<svg width="59px" height="55px" viewBox="0 0 59 55" version="1.1" xmlns="http://www.w3.org/2000/svg" xmlns:xlink="http://www.w3.org/1999/xlink">
    <!-- Generator: Sketch 48.2 (47327) - http://www.bohemiancoding.com/sketch -->
    <title>Group 8</title>
    <desc>Created with Sketch.</desc>
    <defs></defs>
    <g id="Desktop---new-footer" stroke="none" stroke-width="1" fill="none" fill-rule="evenodd" transform="translate(-837.000000, -455.000000)">
        <g id="footer" transform="translate(0.000000, 372.000000)" fill-rule="nonzero">
            <g id="Group-5" transform="translate(359.000000, 44.000000)">
                <g id="Group-4" transform="translate(0.000000, 38.369385)">
                    <g id="Group-8" transform="translate(477.000000, 0.630615)">
                        <path d="M49.195029,43.359 L48.178029,42.5 C48.156029,43.034 47.142029,47.393 50.207029,48.661 C50.846029,48.925 51.396029,49.032 51.867029,49.032 C53.857029,49.032 54.450029,47.128 54.450029,47.128 C54.450029,47.128 54.0161043,49.5159719 56.678029,48.661 C58.736029,48 58.736029,42 58.736029,42 L57.193029,44.464 L53.821029,43.359 L49.195029,43.359 Z" id="Shape" fill="#B0C0CF"></path>
                        <path d="M6.19502897,42.359 L6,41.5 C5.978,42.034 4.14202897,46.393 7.20702897,47.661 C7.84602897,47.925 8.39602897,48.032 8.86702897,48.032 C10.857029,48.032 11.450029,46.128 11.450029,46.128 C11.450029,46.128 10,50.032 16.5,48.032 C18.5820743,47.3913618 20,40.5 15.736029,41 L14.193029,43.464 L10.821029,42.359 L6.19502897,42.359 Z" id="Shape-Copy-2" fill="#B0C0CF"></path>
                        <path d="M1.694,29.896 L7.945,38.402 L15.033,48.174 L18.532,51.779 C18.532,51.779 20.182,49.602 20.536,49.681 C20.89,49.76 17.311,45.761 17.311,45.761 L4.336,27.795 C4.336,27.796 2.017,28.479 1.694,29.896" id="Shape" fill="#EA7576"></path>
                        <path d="M17.869,52.5 C18.573,52.715 20,54 21.098,54.074 C22.196,54.148 23.333,53.869 23.68,53.282 C22.906,52.531 21.425,51.714 20.097,51.068 C19.777,51.459 19.534,51.779 19.534,51.779 L17.869,50.063 C17.58,49.944 17.409,49.876 17.409,49.876 C17.409,49.876 16.408,52.056 17.869,52.5 Z" id="Shape" fill="#B0C0CF"></path>
                        <path d="M16.868,50.065 L18.533,51.781 C18.533,51.781 18.776,51.46 19.096,51.07 C18.192,50.63 17.359,50.27 16.868,50.065" id="Shape" fill="#C06162"></path>
                        <polygon id="Shape" fill="#FFF8D9" points="18.533 51.78 22.304 53.283 20.89 49.761"></polygon>
                        <path d="M26.891,14.946 C26.891,14.946 20.382,8.695 24.023,6.375 C27.664,4.055 33.577,10.661 33.577,10.661 C33.577,10.661 31.086,2.638 35.529,1.478 C39.973,0.318 45.081,8.49 44.686,15.746 C42.532,15.725 40.472,15.726 38.567,15.726 C32.254,15.727 27.633,15.729 26.891,14.946" id="Shape" fill="#FDE94B"></path>
                        <path d="M34.524,12.562 C33.843,13.346 31.796,13.555 29.81,13.555 C27.554,13.555 25.378,13.286 25.378,13.286 L26.891,14.947 L44.594,15.374 L44.594,13.059 C44.594,13.059 43.173,13.173 41.225,13.173 C39.223,13.172 36.665,13.052 34.524,12.562" id="Shape" fill="#CFC13E"></path>
                        <path d="M34.897,1.993 C34.897,1.993 34.56,6.87 38.233,8.556 C41.906,10.242 42.873,7.084 42.873,7.084 C42.873,7.084 40.39,0.382 34.897,1.993 Z" id="Shape" fill="#FFF8D9"></path>
                        <path d="M22.917,9.791 C22.917,9.791 26.118,11.86 28.438,11.245 C30.758,10.629 30.178,7.729 30.178,7.729 C30.178,7.729 27.129,4.778 24.765,5.989 C22.401,7.2 22.917,9.791 22.917,9.791 Z" id="Shape" fill="#FFF8D9"></path>
                        <path d="M15.034,35.768 C15.034,35.768 15.528,28.073 15.442,24.903 C15.356,21.734 14.336,16.48 17.246,15.775 C20.156,15.07 40.378,15.438 42.941,15.775 C43.739,15.88 44.9,15.846 46.176,15.813 C49,15.738 52.385,15.663 53.624,17.094 C55.424,19.171 55.911,25.171 55.911,31.872 C55.911,34.793 56.169,35.591 55.911,35.751 C55.653,35.911 54.794,40.22 54.794,40.22 L18.12,40.22 L15.034,35.768" id="Shape" fill="#A3C5EA"></path>
                        <path d="M15.554,19.758 C15.554,19.758 24.808,17.699 30.479,20.232 C36.15,22.765 45.687,20.015 48.523,19.414 C51.358,18.813 54.765,19.414 54.765,19.414 C54.765,19.414 55.655,25.257 55.912,31.873 C45.944,32.389 41.739,29.038 33.402,29.553 C25.065,30.068 15.553,32.303 15.553,32.303 L15.553,19.758 L15.554,19.758 Z" id="Shape" fill="#7FABD3"></path>
                        <path d="M22.945,31.328 C20.021,31.455 17.566,31.721 17.707,33.693 C17.848,35.665 24.522,36.504 25.098,35.178 C25.674,33.85 25.867,31.201 22.945,31.328" id="Shape" fill="#FFE3E3"></path>
                        <path d="M47.883,35.698 C50.774,35.236 53.182,34.689 52.815,32.746 C52.449,30.804 45.721,30.738 45.302,32.122 C44.883,33.506 44.995,36.16 47.883,35.698" id="Shape" fill="#FFE3E3"></path>
                        <path d="M32.572,37.434 L32.852,39.95 L37.614,39.95 L37.878,38.006 C37.878,38.006 33.808,38.562 32.572,37.434" id="Shape" fill="#F4C64C"></path>
                        <path d="M30.764,40.22 L18.627,40.22 L18.801,40.435 L30.764,40.22 M55.912,35.751 C55.86,35.783 55.783,35.985 55.694,36.286 L55.912,35.751 M55.969,34.141 C55.979,34.33 55.988,34.498 55.997,34.647 C56.006,34.5 56.016,34.335 56.026,34.15 C56.007,34.147 55.988,34.144 55.969,34.141" id="Shape" fill="#D1D3D4"></path>
                        <path d="M32.852,39.95 L32.572,37.434 C33.194,38.002 34.536,38.143 35.714,38.143 C36.875,38.143 37.879,38.006 37.879,38.006 L37.879,38.006 L37.879,38.006 L37.615,39.95 L32.852,39.95 M55.455,34.105 C53.795,34.105 51.785,35.159 49.529,36.768 C48.477,37.519 47.133,37.725 45.639,37.725 C44.722,37.725 43.748,37.647 42.75,37.569 C41.752,37.491 40.73,37.413 39.716,37.413 C39.437,37.413 39.158,37.419 38.881,37.432 C38.299,37.74 37.404,37.843 36.469,37.843 C34.6,37.843 32.572,37.432 32.572,37.432 C32.572,37.432 31.082,37.219 28.789,37.219 C28.385,37.219 27.956,37.226 27.507,37.241 C26.52,37.275 25.49,37.315 24.497,37.315 C22.468,37.315 20.59,37.148 19.538,36.424 C17.308,34.888 15.3,34.248 15.3,34.248 L15.034,35.766 L15.034,35.766 L18.627,40.218 L30.764,40.218 L54.265,39.795 L55.695,36.284 C55.784,35.983 55.861,35.782 55.913,35.749 L55.913,35.749 C55.913,35.749 55.945,35.52 55.998,34.645 C55.989,34.496 55.98,34.328 55.97,34.139 C55.802,34.117 55.631,34.105 55.455,34.105" id="Shape" fill="#86A3C3"></path>
                        <path d="M32.572,37.434 L32.852,39.95 L37.614,39.95 L37.878,38.006 C37.878,38.006 36.875,38.143 35.713,38.143 C34.535,38.143 33.194,38.002 32.572,37.434" id="Shape" fill="#C8A43F"></path>
                        <path d="M52.763,36.426 C52.763,36.426 50.268,38.903 48.988,42.519 C47.707,46.136 49.34,47.306 50.263,47.172 C51.186,47.038 53.32,45.234 53.32,45.234 C53.32,45.234 53.313,46.974 55.505,46.909 C57.695,46.845 59.5,42.745 58.92,40.22 C58.34,37.695 56.596,34.062 52.763,36.426 Z" id="Shape" fill="#86D7B5"></path>
                        <path d="M10.007,37.27 C10.007,37.27 6.076,40.079 5.625,42.785 C5.174,45.492 6.463,45.99 8.203,45.515 C9.943,45.04 11.554,44.074 11.554,44.074 C11.554,44.074 11.528,47.3 12.346,47.555 C13.165,47.811 17.711,46.522 18.692,43.816 C19.673,41.11 19.416,37.769 17.224,36.769 C15.034,35.768 11.775,35.775 10.007,37.27 Z" id="Shape" fill="#86D7B5"></path>
                        <path d="M32.046,37.179 C32.046,37.179 32.293,31.798 34.812,31.798 C37.331,31.798 37.878,37.63 37.878,37.63 C37.878,37.63 37.427,38.105 34.962,38.012 C32.498,37.919 32.046,37.179 32.046,37.179 Z" id="Shape" fill="#F4C64C"></path>
                        <path d="M55.685,20.516 C55.261,17.602 54.311,15.686 51.126,15.701 C39.689,14.633 28.246,14.491 16.787,15.274 C16.421,15.299 15.907,15.982 15.805,16.155 C14.246,18.793 14.62,21.664 14.592,24.625 C14.556,28.325 14.358,32.018 14.391,35.719 C14.398,36.516 16.062,36.717 16.055,35.917 C16.029,33.027 16.334,30.187 16.41,27.299 C16.497,23.979 15.126,19.109 17.46,16.607 C18.133,15.886 39.838,15.429 51.216,16.492 C55.076,16.474 54.817,21.884 55.226,24.584 C55.787,28.294 55.158,31.646 55.219,35.395 C55.226,35.804 56.909,36.711 56.889,35.912 C56.754,30.604 56.448,25.769 55.685,20.516 Z" id="Shape" fill="#614242"></path>
                        <path d="M35.966,0.626 C31.392,0.307 31.627,5.361 32.882,9.383 C30.122,6.597 26.286,3.792 23.784,5.462 C20.086,7.93 23.673,13.743 25.837,15.375 C26.474,15.855 28.523,15.343 27.893,14.868 C26.437,13.771 23.839,11.241 24.198,9.195 C24.422,7.9 24.726,7.799 25.582,7.256 C26.662,6.621 28.007,6.676 28.9,7.428 C31.33,9.097 33.36,11.407 34.78,13.511 C35.245,14.136 35.917,13.9 35.463,13.227 C33.946,11.187 33.34,8.641 33.34,6.024 C33.34,2.188 37.413,1.073 39.931,3.604 C42.839,6.526 44.293,11.09 44.179,15.166 C44.157,15.964 44.945,15.986 44.967,15.188 C45.104,10.258 42.122,1.057 35.966,0.626 Z" id="Shape" fill="#614242"></path>
                        <path d="M13.944,35.78 C10.017,35.55 5.567,39.355 4.997,43.287 C4.804,44.624 5.007,46.297 6.462,46.608 C8.186,46.977 9.833,45.442 11.322,44.813 C11.299,46.304 11.221,48.156 12.969,48.284 C15.347,48.459 17.583,46.277 18.698,44.431 C21.184,40.319 19.166,35.323 13.944,35.78 Z M18.146,43.816 C17.507,45.02 16.13,45.994 14.839,46.534 C11.915,47.757 12.122,46.692 12.005,44.81 C11.979,44.396 12.186,43.421 11.77,43.357 C11.404,43.3 10.79,44.092 10.072,44.487 C8.55,45.323 5.481,45.519 6.4,42.788 C7.422,39.747 10.663,36.44 13.939,36.632 C17.871,36.288 19.913,40.487 18.146,43.816 Z" id="Shape" fill="#614242"></path>
                        <path d="M52.002,36.261 C49.799,38.496 46.385,43.669 48.773,46.797 C50.245,48.724 52.753,47.827 53.225,45.919 C54.107,46.833 54.53,48.267 56.292,47.518 C58.437,46.607 59.226,43.159 59.289,41.118 C59.408,37.258 55.62,33.046 52.002,36.261 Z M56.808,45.382 C56.57,45.915 55.341,46.397 54.473,45.986 C53.797,45.666 53.469,44.496 53.169,44.373 C52.953,44.285 52.363,45.507 51.529,45.792 C50.55,46.127 49.328,45.497 49.363,44.799 C49.259,44.22 49.301,43.646 49.489,43.076 C49.669,42.282 49.957,41.474 50.3,40.741 C50.937,39.382 51.576,37.833 52.625,36.768 C53.883,35.651 55.924,35.646 57.028,36.877 C58.409,38.415 58.249,41.317 57.707,43.185 C57.551,43.723 57.285,45.049 56.808,45.382 Z" id="Shape" fill="#614242"></path>
                        <path d="M10.851,36.406 C8.594,33.647 6.588,30.679 4.796,27.599 C4.676,27.392 4.496,27.314 4.313,27.309 C4.191,27.257 4.061,27.234 3.937,27.285 C2.853,27.737 1.907,28.394 1.158,29.306 C0.957,29.55 0.945,29.942 1.042,30.09 C2.897,32.925 5.249,35.973 7.559,38.876 C8.056,39.5 8.753,39.032 8.354,38.339 C6.687,35.449 3.688,32.981 2.247,29.951 C2.738,29.408 3.385,28.461 4.042,28.136 C5.827,31.162 8.011,33.912 10.236,36.633 C10.741,37.25 11.352,37.019 10.851,36.406 Z" id="Shape" fill="#614242"></path>
                        <path d="M13.886,48.194 C15.369,49.375 16.77,50.645 18.09,52.006 C18.646,52.579 19.522,51.702 18.966,51.13 C17.646,49.77 16.245,48.499 14.762,47.318 C14.145,46.826 13.262,47.697 13.886,48.194 Z" id="Shape" fill="#614242"></path>
                        <path d="M20.887,49.852 C20.937,48.992 20.304,48.776 19.709,48.256 C18.85,47.504 18.169,46.515 17.311,45.762 C16.713,45.239 16.151,45.631 16.752,46.158 C17.387,46.714 18.057,47.486 18.692,48.042 C19.099,48.398 20.117,49.512 20.082,50.124 C20.035,50.921 20.844,50.555 20.89,49.761 L20.887,49.852 Z" id="Shape" fill="#614242"></path>
                        <path d="M22.91,52.951 C22.476,51.909 22.008,50.883 21.496,49.876 C21.291,49.474 20.769,49.058 20.537,48.923 C20.315,48.819 20.163,49.359 19.954,49.567 C19.274,50.24 18.674,50.851 18.282,51.511 L18.255,51.555 L18.212,51.626 C18.085,51.841 18.106,52.013 18.193,52.137 C18.252,52.295 18.373,52.431 18.586,52.49 C19.652,52.786 20.642,53.279 21.696,53.614 C22.445,53.853 23.133,53.487 22.91,52.951 Z M20.884,50.175 C21.117,50.638 21.949,52.5 22.165,52.971 C21.63,52.759 19.901,52.055 19.351,51.884 C19.629,51.564 20.556,50.383 20.884,50.175 Z" id="Shape" fill="#614242"></path>
                        <path d="M33.013,37.493 C32.989,36.454 32.779,35.212 33.142,34.222 C33.578,33.033 33.908,32.317 34.85,32.388 C35.633,32.447 36.454,33.321 36.794,33.978 C37.27,34.899 37.41,36.286 37.419,37.319 C37.426,38.116 38.304,38.292 38.297,37.493 C38.284,36.057 38.285,34.487 37.514,33.266 C36.956,32.383 35.979,31.023 34.79,31.091 C31.79,31.261 31.277,34.84 31.329,37.07 C31.348,37.866 32.59,38.232 32.571,37.433 L33.013,37.493 Z" id="Shape" fill="#614242"></path>
                        <path d="M29.49,36.255 C32.061,39.047 38.813,40.465 41.261,35.482 C41.614,34.764 40.995,34.444 40.575,35.121 C38.013,39.249 33.284,37.476 29.755,35.657 C29.048,35.292 28.78,35.889 29.49,36.255 Z" id="Shape" fill="#614242"></path>
                        <path d="M31.33,37.071 C31.33,37.071 31.371,39.589 31.757,40.145 C32.788,40.304 33.163,40.22 33.163,40.22 L33.052,37.737 L31.33,37.071 Z" id="Shape" fill="#614242"></path>
                        <path d="M37.614,37.849 C37.614,37.849 37.462,39.489 37.316,40.102 C37.911,40.207 38.169,40.102 38.169,40.102 C38.169,40.102 38.481,38.316 38.459,37.726 C38.136,37.726 37.614,37.849 37.614,37.849 Z" id="Shape" fill="#614242"></path>
                        <path d="M42.023,18.286 C42.121,18.525 42.159,19.266 42.924,18.837 C43.689,18.408 44.866,17.811 46.162,17.819 C47.458,17.827 48.653,18.642 48.653,18.642 C48.653,18.642 49.417,18.638 49.46,18.314 C49.502,17.991 47.953,16.526 46.039,16.687 C43.33,16.913 42.023,18.286 42.023,18.286 Z" id="Shape" fill="#614242"></path>
                        <path d="M22.854,17.762 C22.928,18.009 22.897,18.751 23.699,18.396 C24.501,18.041 25.73,17.557 27.018,17.687 C28.307,17.816 29.421,18.74 29.421,18.74 C29.421,18.74 30.182,18.807 30.254,18.49 C30.326,18.172 28.922,16.569 27.001,16.548 C24.284,16.518 22.854,17.762 22.854,17.762 Z" id="Shape" fill="#614242"></path>
                        <path d="M21.197,26.396 C21.04,28.578 22.88,31.414 26.761,30.618 C30.641,29.823 30.084,25.512 27.879,24.388 C25.673,23.263 21.447,22.928 21.197,26.396 Z" id="Shape" fill="#FFFFFF"></path>
                        <path d="M22.73,26.824 C22.209,28.078 22.766,30.279 25.062,30.376 C27.358,30.474 27.5,27.934 27.249,27.047 C26.998,26.16 23.469,25.046 22.73,26.824 Z" id="Shape" fill="#614242"></path>
                        <circle id="Oval" fill="#FFFFFF" transform="translate(23.856105, 27.783299) rotate(-8.835901) translate(-23.856105, -27.783299) " cx="23.8561051" cy="27.7832992" r="1"></circle>
                        <path d="M41.64,27.61 C41.908,29.708 44.195,32.044 47.72,30.548 C51.246,29.052 49.894,25.073 47.588,24.429 C45.283,23.785 41.214,24.276 41.64,27.61 Z" id="Shape" fill="#FFFFFF"></path>
                        <path d="M43.205,27.524 C42.764,28.76 43.411,30.857 45.633,30.838 C47.856,30.818 47.865,28.359 47.579,27.515 C47.293,26.671 43.83,25.771 43.205,27.524 Z" id="Shape" fill="#614242"></path>
                        <circle id="Oval" fill="#FFFFFF" transform="translate(44.292240, 28.151583) rotate(-1.770761) translate(-44.292240, -28.151583) " cx="44.29224" cy="28.1515834" r="1"></circle>
                        <path d="M51.783,26.434 C51.19,21.681 47.071,19.697 42.679,20.587 C40.041,21.326 38.638,23.311 38.272,25.507 C36.337,25.119 34.432,25.232 32.491,25.475 C31.576,21.277 27.822,19.941 23.686,20.779 C16.398,22.551 17.156,34.106 25.748,33.572 C29.624,33.331 32.919,30.846 32.656,26.692 C34.505,26.456 36.331,26.341 38.174,26.747 C38.198,30.352 40.826,34.012 45.295,33.424 C49.154,32.915 52.316,30.711 51.783,26.434 Z M23.285,31.785 C18.766,29.933 19.173,22.729 23.851,21.591 C27.429,20.866 30.644,22.394 31.284,26.019 C31.276,26.113 31.295,26.21 31.329,26.305 L31.361,26.507 C31.798,30.591 26.914,33.272 23.285,31.785 Z M43.075,31.797 C37.953,30.652 38.359,22.743 43.075,21.422 C46.747,20.678 50.485,22.505 50.882,26.518 C51.273,30.488 46.716,32.612 43.075,31.797 Z" id="Shape" fill="#614242"></path>
                    </g>
                </g>
            </g>
        </g>
    </g>
</svg>