<?xml version="1.0" encoding="UTF-8"?>
<svg width="35px" height="35px" viewBox="0 0 35 35" version="1.1" xmlns="http://www.w3.org/2000/svg" xmlns:xlink="http://www.w3.org/1999/xlink">
    <!-- Generator: Sketch 48.2 (47327) - http://www.bohemiancoding.com/sketch -->
    <title>Youtube_Color</title>
    <desc>Created with Sketch.</desc>
    <defs></defs>
    <g id="new-footer" stroke="none" stroke-width="1" fill="none" fill-rule="evenodd" transform="translate(-257.000000, -17.000000)">
        <g id="Group-38">
            <g transform="translate(159.000000, 17.000000)">
                <g id="Youtube" transform="translate(98.000000, 0.000000)">
                    <path d="M0,17.5 C0,7.8350164 7.71771017,0 17.2379892,0 C26.7582682,0 34.4759784,7.8350164 34.4759784,17.5 C34.4759784,27.1649836 26.7582682,35 17.2379892,35 C7.71771017,35 0,27.1649836 0,17.5 Z" id="back" fill="#CE1312"></path>
                    <path d="M26.2098361,13.9774515 C26.2098361,13.9774515 26.0302459,12.6630271 25.48,12.0842034 C24.7817213,11.3241621 23.9990984,11.3205854 23.6404918,11.2764732 C21.0711475,11.0833333 17.2171311,11.0833333 17.2171311,11.0833333 L17.2090984,11.0833333 C17.2090984,11.0833333 13.355082,11.0833333 10.7857377,11.2764732 C10.4265574,11.3205854 9.6445082,11.3241621 8.94565574,12.0842034 C8.39540984,12.6630271 8.21639344,13.9774515 8.21639344,13.9774515 C8.21639344,13.9774515 8.03278689,15.5213785 8.03278689,17.0647095 L8.03278689,18.5120666 C8.03278689,20.0559937 8.21639344,21.5993247 8.21639344,21.5993247 C8.21639344,21.5993247 8.39540984,22.9137491 8.94565574,23.4925727 C9.6445082,24.252614 10.5619672,24.2287696 10.9704918,24.3080523 C12.4393443,24.4546956 17.2131148,24.5 17.2131148,24.5 C17.2131148,24.5 21.0711475,24.4940389 23.6404918,24.300899 C23.9990984,24.2561907 24.7817213,24.252614 25.48,23.4925727 C26.0302459,22.9137491 26.2098361,21.5993247 26.2098361,21.5993247 C26.2098361,21.5993247 26.3934426,20.0559937 26.3934426,18.5120666 L26.3934426,17.0647095 C26.3934426,15.5213785 26.2098361,13.9774515 26.2098361,13.9774515 L26.2098361,13.9774515 Z" fill="#FFFFFF"></path>
                    <polygon id="Path" fill="#CE1312" points="15.317377 20.2658247 15.3168033 14.9061921 20.277623 17.5952481"></polygon>
                </g>
            </g>
        </g>
    </g>
</svg>