<?xml version="1.0" encoding="UTF-8"?><!DOCTYPE svg PUBLIC "-//W3C//DTD SVG 1.1//EN" "http://www.w3.org/Graphics/SVG/1.1/DTD/svg11.dtd"><svg xmlns="http://www.w3.org/2000/svg"><symbol id="facebook_icon" viewBox="0 0 35 35"><title>facebook button</title><g fill="none" fill-rule="evenodd"><rect fill="#3E539E" width="35" height="35" rx="17.5"/><path d="M19.218 27.313v-8.81h3.28l.49-3.433h-3.77v-2.192c0-.994.306-1.671 1.887-1.671l2.016-.001v-3.07A29.883 29.883 0 0 0 20.183 8c-2.906 0-4.896 1.6-4.896 4.538v2.532H12v3.433h3.287v8.81h3.931" fill="#FFF"/></g></symbol><symbol id="google_icon" viewBox="0 0 35 35"><title>G+ button</title><g fill="none" fill-rule="evenodd"><rect fill="#DC4A3D" width="35" height="35" rx="17.5"/><path d="M28.658 16.352v-2.679h-1.913v2.679H23.99v1.913h2.755v2.755h1.913v-2.755h2.679v-1.913h-2.679zm-13.928-.153v3.061s2.97-.004 4.178-.004c-.654 1.985-1.673 3.065-4.178 3.065-2.536 0-4.516-2.055-4.516-4.591s1.98-4.592 4.516-4.592c1.34 0 2.206.471 3 1.128.636-.636.583-.727 2.2-2.254a7.73 7.73 0 1 0-5.201 13.447c6.381 0 7.941-5.556 7.424-9.26H14.73z" fill="#FFF"/></g></symbol><symbol id="payment-amex" viewBox="0 0 28 20"><title>amex</title><g fill="none" fill-rule="evenodd"><path d="M28 17.333A2.667 2.667 0 0 1 25.333 20H2.667A2.667 2.667 0 0 1 0 17.333V2.667A2.667 2.667 0 0 1 2.667 0h22.666A2.667 2.667 0 0 1 28 2.667v14.666z" fill="#1976D2"/><g fill="#FFF"><path d="M12.837 7.333l-1.409 3.122-1.402-3.122H8.229v4.484L6.227 7.333H4.711l-2.044 4.654h1.21l.447-1.038h2.288l.455 1.038h2.31V8.531l1.532 3.456h1.042l1.568-3.396v3.396h1.148V7.333h-1.83zm-8.08 2.61l.684-1.626.71 1.626H4.757zM23.255 9.609l2.078-2.264h-1.478l-1.329 1.443-1.286-1.455h-4.573v4.655h4.423l1.395-1.54L23.845 12h1.473l-2.063-2.391zm-2.77 1.402h-2.674v-.921h2.559v-.882h-2.559v-.872l2.823.008 1.129 1.265-1.278 1.402z"/></g></g></symbol><symbol id="payment-isracard" viewBox="0 0 28 20"><title>isracard</title><g fill="none" fill-rule="evenodd"><path d="M28 17.333A2.667 2.667 0 0 1 25.333 20H2.667A2.667 2.667 0 0 1 0 17.333V2.667A2.667 2.667 0 0 1 2.667 0h22.666A2.667 2.667 0 0 1 28 2.667v14.666z" fill="#ECECEC"/><path fill="#FF1A2B" d="M4.124 10.397l6.622-6.622 6.622 6.622-6.622 6.622z"/><path d="M14.094 13.44c.077-.08 1.551-1.595 2.56-2.66.373-.394-.241-1.315-.241-1.315l-3.147 3.148-.845-.845 3.147-3.07-.767-.845-3.147 3.148-.922-.922 6.623-6.622 6.622 6.622-6.622 6.622-3.261-3.26z" fill="#193891"/></g></symbol><symbol id="payment-mastercard" viewBox="0 0 42 30"><title>masrecard</title><g fill="none" fill-rule="evenodd"><path d="M42 26a4 4 0 0 1-4 4H4a4 4 0 0 1-4-4V4a4 4 0 0 1 4-4h34a4 4 0 0 1 4 4v22z" fill="#3F51B5"/><circle fill="#FFC107" cx="27" cy="15" r="10"/><path d="M19.014 21a9.983 9.983 0 0 1-1.176-2h5.325a9.9 9.9 0 0 0 .637-2h-6.598A9.976 9.976 0 0 1 17 15h7c0-.686-.07-1.354-.201-2h-6.598a9.964 9.964 0 0 1 .637-2h5.325a9.936 9.936 0 0 0-1.176-2h-2.973c.437-.58.93-1.122 1.481-1.595A9.955 9.955 0 0 0 14 5C8.477 5 4 9.477 4 15s4.477 10 10 10c3.269 0 6.162-1.575 7.986-4h-2.972z" fill="#FF3D00"/></g></symbol><symbol id="payment-visa" viewBox="0 0 39 28"><title>visa</title><g fill="none" fill-rule="evenodd"><path d="M39 24.267C39 26.328 37.337 28 35.286 28H3.714C1.664 28 0 26.328 0 24.267V3.733C0 1.672 1.663 0 3.714 0h31.572C37.336 0 39 1.672 39 3.733v20.534z" fill="#D5D5D5"/><path d="M38 23.533C38 25.448 36.422 27 34.476 27H4.524C2.578 27 1 25.448 1 23.533V4.467C1 2.552 2.578 1 4.524 1h29.952C36.422 1 38 2.552 38 4.467v19.066z" fill="#FFF"/><g fill="#1565C0"><path d="M11.622 9.717l-2.289 6.827s-.581-2.888-.639-3.25c-1.303-2.974-3.226-2.808-3.226-2.808l2.267 8.82v-.002h2.755l3.81-9.587h-2.678zM13.804 19.306h2.503l1.513-9.589h-2.534zM31.516 9.717h-2.633l-4.106 9.589h2.486l.513-1.37h3.135l.266 1.37h2.278l-1.939-9.589zm-3.046 6.388l1.362-3.624.713 3.624H28.47zM21.37 12.512c0-.529.435-.922 1.68-.922.808 0 1.735.588 1.735.588l.406-2.013s-1.183-.449-2.345-.449c-2.632 0-3.99 1.259-3.99 2.852 0 2.882 3.47 2.487 3.47 3.967 0 .254-.202.84-1.647.84-1.448 0-2.405-.53-2.405-.53l-.431 1.932s.927.528 2.717.528c1.795 0 4.284-1.343 4.284-3.27 0-2.32-3.473-2.488-3.473-3.523z"/></g><path d="M9.03 14.9l-.842-4.14s-.38-.897-1.371-.897h-3.87S7.88 11.321 9.03 14.9z" fill="#FFC107"/></g></symbol><symbol id="subscribe_little_bird" viewBox="0 0 59 55"><title>Group 8</title><g transform="translate(-1)" fill-rule="nonzero" fill="none"><path d="M49.195 43.359l-1.017-.859c-.022.534-1.036 4.893 2.029 6.161.639.264 1.189.371 1.66.371 1.99 0 2.583-1.904 2.583-1.904s-.434 2.388 2.228 1.533C58.736 48 58.736 42 58.736 42l-1.543 2.464-3.372-1.105h-4.626zM6.195 42.359L6 41.5c-.022.534-1.858 4.893 1.207 6.161.639.264 1.189.371 1.66.371 1.99 0 2.583-1.904 2.583-1.904S10 50.032 16.5 48.032c2.082-.64 3.5-7.532-.764-7.032l-1.543 2.464-3.372-1.105H6.195z" fill="#B0C0CF"/><path d="M1.694 29.896l6.251 8.506 7.088 9.772 3.499 3.605s1.65-2.177 2.004-2.098c.354.079-3.225-3.92-3.225-3.92L4.336 27.795c0 .001-2.319.684-2.642 2.101" fill="#EA7576"/><path d="M17.869 52.5c.704.215 2.131 1.5 3.229 1.574 1.098.074 2.235-.205 2.582-.792-.774-.751-2.255-1.568-3.583-2.214-.32.391-.563.711-.563.711l-1.665-1.716c-.289-.119-.46-.187-.46-.187s-1.001 2.18.46 2.624z" fill="#B0C0CF"/><path d="M16.868 50.065l1.665 1.716s.243-.321.563-.711c-.904-.44-1.737-.8-2.228-1.005" fill="#C06162"/><path fill="#FFF8D9" d="M18.533 51.78l3.771 1.503-1.414-3.522z"/><path d="M26.891 14.946s-6.509-6.251-2.868-8.571c3.641-2.32 9.554 4.286 9.554 4.286s-2.491-8.023 1.952-9.183c4.444-1.16 9.552 7.012 9.157 14.268-2.154-.021-4.214-.02-6.119-.02-6.313.001-10.934.003-11.676-.78" fill="#FDE94B"/><path d="M34.524 12.562c-.681.784-2.728.993-4.714.993-2.256 0-4.432-.269-4.432-.269l1.513 1.661 17.703.427v-2.315s-1.421.114-3.369.114c-2.002-.001-4.56-.121-6.701-.611" fill="#CFC13E"/><path d="M34.897 1.993s-.337 4.877 3.336 6.563 4.64-1.472 4.64-1.472S40.39.382 34.897 1.993zM22.917 9.791s3.201 2.069 5.521 1.454c2.32-.616 1.74-3.516 1.74-3.516s-3.049-2.951-5.413-1.74c-2.364 1.211-1.848 3.802-1.848 3.802z" fill="#FFF8D9"/><path d="M15.034 35.768s.494-7.695.408-10.865c-.086-3.169-1.106-8.423 1.804-9.128 2.91-.705 23.132-.337 25.695 0 .798.105 1.959.071 3.235.038 2.824-.075 6.209-.15 7.448 1.281 1.8 2.077 2.287 8.077 2.287 14.778 0 2.921.258 3.719 0 3.879-.258.16-1.117 4.469-1.117 4.469H18.12l-3.086-4.452" fill="#A3C5EA"/><path d="M15.554 19.758s9.254-2.059 14.925.474c5.671 2.533 15.208-.217 18.044-.818 2.835-.601 6.242 0 6.242 0s.89 5.843 1.147 12.459c-9.968.516-14.173-2.835-22.51-2.32-8.337.515-17.849 2.75-17.849 2.75V19.758h.001z" fill="#7FABD3"/><path d="M22.945 31.328c-2.924.127-5.379.393-5.238 2.365.141 1.972 6.815 2.811 7.391 1.485.576-1.328.769-3.977-2.153-3.85M47.883 35.698c2.891-.462 5.299-1.009 4.932-2.952-.366-1.942-7.094-2.008-7.513-.624-.419 1.384-.307 4.038 2.581 3.576" fill="#FFE3E3"/><path d="M32.572 37.434l.28 2.516h4.762l.264-1.944s-4.07.556-5.306-.572" fill="#F4C64C"/><path d="M30.764 40.22H18.627l.174.215 11.963-.215m25.148-4.469c-.052.032-.129.234-.218.535l.218-.535m.057-1.61l.028.506.029-.497-.057-.009" fill="#D1D3D4"/><path d="M32.852 39.95l-.28-2.516c.622.568 1.964.709 3.142.709 1.161 0 2.165-.137 2.165-.137l-.264 1.944h-4.763m22.603-5.845c-1.66 0-3.67 1.054-5.926 2.663-1.052.751-2.396.957-3.89.957-.917 0-1.891-.078-2.889-.156-.998-.078-2.02-.156-3.034-.156-.279 0-.558.006-.835.019-.582.308-1.477.411-2.412.411-1.869 0-3.897-.411-3.897-.411s-1.49-.213-3.783-.213c-.404 0-.833.007-1.282.022-.987.034-2.017.074-3.01.074-2.029 0-3.907-.167-4.959-.891-2.23-1.536-4.238-2.176-4.238-2.176l-.266 1.518 3.593 4.452h12.137l23.501-.423 1.43-3.511c.089-.301.166-.502.218-.535 0 0 .032-.229.085-1.104a70.41 70.41 0 0 1-.028-.506 3.954 3.954 0 0 0-.515-.034" fill="#86A3C3"/><path d="M32.572 37.434l.28 2.516h4.762l.264-1.944s-1.003.137-2.165.137c-1.178 0-2.519-.141-3.141-.709" fill="#C8A43F"/><path d="M52.763 36.426s-2.495 2.477-3.775 6.093c-1.281 3.617.352 4.787 1.275 4.653.923-.134 3.057-1.938 3.057-1.938s-.007 1.74 2.185 1.675c2.19-.064 3.995-4.164 3.415-6.689-.58-2.525-2.324-6.158-6.157-3.794zM10.007 37.27s-3.931 2.809-4.382 5.515c-.451 2.707.838 3.205 2.578 2.73 1.74-.475 3.351-1.441 3.351-1.441s-.026 3.226.792 3.481c.819.256 5.365-1.033 6.346-3.739.981-2.706.724-6.047-1.468-7.047-2.19-1.001-5.449-.994-7.217.501z" fill="#86D7B5"/><path d="M32.046 37.179s.247-5.381 2.766-5.381 3.066 5.832 3.066 5.832-.451.475-2.916.382c-2.464-.093-2.916-.833-2.916-.833z" fill="#F4C64C"/><path d="M55.685 20.516c-.424-2.914-1.374-4.83-4.559-4.815a212.713 212.713 0 0 0-34.339-.427c-.366.025-.88.708-.982.881-1.559 2.638-1.185 5.509-1.213 8.47-.036 3.7-.234 7.393-.201 11.094.007.797 1.671.998 1.664.198-.026-2.89.279-5.73.355-8.618.087-3.32-1.284-8.19 1.05-10.692.673-.721 22.378-1.178 33.756-.115 3.86-.018 3.601 5.392 4.01 8.092.561 3.71-.068 7.062-.007 10.811.007.409 1.69 1.316 1.67.517-.135-5.308-.441-10.143-1.204-15.396z" fill="#614242"/><path d="M35.966.626c-4.574-.319-4.339 4.735-3.084 8.757-2.76-2.786-6.596-5.591-9.098-3.921-3.698 2.468-.111 8.281 2.053 9.913.637.48 2.686-.032 2.056-.507-1.456-1.097-4.054-3.627-3.695-5.673.224-1.295.528-1.396 1.384-1.939 1.08-.635 2.425-.58 3.318.172 2.43 1.669 4.46 3.979 5.88 6.083.465.625 1.137.389.683-.284-1.517-2.04-2.123-4.586-2.123-7.203 0-3.836 4.073-4.951 6.591-2.42 2.908 2.922 4.362 7.486 4.248 11.562-.022.798.766.82.788.022.137-4.93-2.845-14.131-9.001-14.562zM13.944 35.78c-3.927-.23-8.377 3.575-8.947 7.507-.193 1.337.01 3.01 1.465 3.321 1.724.369 3.371-1.166 4.86-1.795-.023 1.491-.101 3.343 1.647 3.471 2.378.175 4.614-2.007 5.729-3.853 2.486-4.112.468-9.108-4.754-8.651zm4.202 8.036c-.639 1.204-2.016 2.178-3.307 2.718-2.924 1.223-2.717.158-2.834-1.724-.026-.414.181-1.389-.235-1.453-.366-.057-.98.735-1.698 1.13-1.522.836-4.591 1.032-3.672-1.699 1.022-3.041 4.263-6.348 7.539-6.156 3.932-.344 5.974 3.855 4.207 7.184zM52.002 36.261c-2.203 2.235-5.617 7.408-3.229 10.536 1.472 1.927 3.98 1.03 4.452-.878.882.914 1.305 2.348 3.067 1.599 2.145-.911 2.934-4.359 2.997-6.4.119-3.86-3.669-8.072-7.287-4.857zm4.806 9.121c-.238.533-1.467 1.015-2.335.604-.676-.32-1.004-1.49-1.304-1.613-.216-.088-.806 1.134-1.64 1.419-.979.335-2.201-.295-2.166-.993a3.463 3.463 0 0 1 .126-1.723c.18-.794.468-1.602.811-2.335.637-1.359 1.276-2.908 2.325-3.973 1.258-1.117 3.299-1.122 4.403.109 1.381 1.538 1.221 4.44.679 6.308-.156.538-.422 1.864-.899 2.197z" fill="#614242"/><path d="M10.851 36.406c-2.257-2.759-4.263-5.727-6.055-8.807a.551.551 0 0 0-.483-.29c-.122-.052-.252-.075-.376-.024-1.084.452-2.03 1.109-2.779 2.021-.201.244-.213.636-.116.784 1.855 2.835 4.207 5.883 6.517 8.786.497.624 1.194.156.795-.537-1.667-2.89-4.666-5.358-6.107-8.388.491-.543 1.138-1.49 1.795-1.815 1.785 3.026 3.969 5.776 6.194 8.497.505.617 1.116.386.615-.227zM13.886 48.194a44.252 44.252 0 0 1 4.204 3.812c.556.573 1.432-.304.876-.876a44.388 44.388 0 0 0-4.204-3.812c-.617-.492-1.5.379-.876.876zM20.887 49.852c.05-.86-.583-1.076-1.178-1.596-.859-.752-1.54-1.741-2.398-2.494-.598-.523-1.16-.131-.559.396.635.556 1.305 1.328 1.94 1.884.407.356 1.425 1.47 1.39 2.082-.047.797.762.431.808-.363l-.003.091z" fill="#614242"/><path d="M22.91 52.951a44.68 44.68 0 0 0-1.414-3.075c-.205-.402-.727-.818-.959-.953-.222-.104-.374.436-.583.644-.68.673-1.28 1.284-1.672 1.944l-.027.044-.043.071c-.127.215-.106.387-.019.511.059.158.18.294.393.353 1.066.296 2.056.789 3.11 1.124.749.239 1.437-.127 1.214-.663zm-2.026-2.776c.233.463 1.065 2.325 1.281 2.796-.535-.212-2.264-.916-2.814-1.087.278-.32 1.205-1.501 1.533-1.709zM33.013 37.493c-.024-1.039-.234-2.281.129-3.271.436-1.189.766-1.905 1.708-1.834.783.059 1.604.933 1.944 1.59.476.921.616 2.308.625 3.341.007.797.885.973.878.174-.013-1.436-.012-3.006-.783-4.227-.558-.883-1.535-2.243-2.724-2.175-3 .17-3.513 3.749-3.461 5.979.019.796 1.261 1.162 1.242.363l.442.06z" fill="#614242"/><path d="M29.49 36.255c2.571 2.792 9.323 4.21 11.771-.773.353-.718-.266-1.038-.686-.361-2.562 4.128-7.291 2.355-10.82.536-.707-.365-.975.232-.265.598z" fill="#614242"/><path d="M31.33 37.071s.041 2.518.427 3.074c1.031.159 1.406.075 1.406.075l-.111-2.483-1.722-.666zM37.614 37.849s-.152 1.64-.298 2.253c.595.105.853 0 .853 0s.312-1.786.29-2.376c-.323 0-.845.123-.845.123zM42.023 18.286c.098.239.136.98.901.551.765-.429 1.942-1.026 3.238-1.018 1.296.008 2.491.823 2.491.823s.764-.004.807-.328c.042-.323-1.507-1.788-3.421-1.627-2.709.226-4.016 1.599-4.016 1.599zM22.854 17.762c.074.247.043.989.845.634.802-.355 2.031-.839 3.319-.709 1.289.129 2.403 1.053 2.403 1.053s.761.067.833-.25c.072-.318-1.332-1.921-3.253-1.942-2.717-.03-4.147 1.214-4.147 1.214z" fill="#614242"/><path d="M21.197 26.396c-.157 2.182 1.683 5.018 5.564 4.222 3.88-.795 3.323-5.106 1.118-6.23-2.206-1.125-6.432-1.46-6.682 2.008z" fill="#FFF"/><path d="M22.73 26.824c-.521 1.254.036 3.455 2.332 3.552 2.296.098 2.438-2.442 2.187-3.329-.251-.887-3.78-2.001-4.519-.223z" fill="#614242"/><circle fill="#FFF" transform="rotate(-8.836 23.856 27.783)" cx="23.856" cy="27.783" r="1"/><path d="M41.64 27.61c.268 2.098 2.555 4.434 6.08 2.938 3.526-1.496 2.174-5.475-.132-6.119-2.305-.644-6.374-.153-5.948 3.181z" fill="#FFF"/><path d="M43.205 27.524c-.441 1.236.206 3.333 2.428 3.314 2.223-.02 2.232-2.479 1.946-3.323-.286-.844-3.749-1.744-4.374.009z" fill="#614242"/><circle fill="#FFF" transform="rotate(-1.771 44.292 28.152)" cx="44.292" cy="28.152" r="1"/><path d="M51.783 26.434c-.593-4.753-4.712-6.737-9.104-5.847-2.638.739-4.041 2.724-4.407 4.92-1.935-.388-3.84-.275-5.781-.032-.915-4.198-4.669-5.534-8.805-4.696-7.288 1.772-6.53 13.327 2.062 12.793 3.876-.241 7.171-2.726 6.908-6.88 1.849-.236 3.675-.351 5.518.055.024 3.605 2.652 7.265 7.121 6.677 3.859-.509 7.021-2.713 6.488-6.99zm-28.498 5.351c-4.519-1.852-4.112-9.056.566-10.194 3.578-.725 6.793.803 7.433 4.428a.683.683 0 0 0 .045.286l.032.202c.437 4.084-4.447 6.765-8.076 5.278zm19.79.012c-5.122-1.145-4.716-9.054 0-10.375 3.672-.744 7.41 1.083 7.807 5.096.391 3.97-4.166 6.094-7.807 5.279z" fill="#614242"/></g></symbol><symbol id="youtube_icon" viewBox="0 0 35 35"><title>Youtube_Color</title><g fill="none" fill-rule="evenodd"><path d="M0 17.5C0 7.835 7.718 0 17.238 0s17.238 7.835 17.238 17.5S26.758 35 17.238 35 0 27.165 0 17.5z" fill="#CE1312"/><path d="M26.21 13.977s-.18-1.314-.73-1.893c-.698-.76-1.48-.763-1.84-.808-2.569-.193-6.423-.193-6.423-.193h-.008s-3.854 0-6.423.193c-.36.045-1.141.048-1.84.808-.55.579-.73 1.893-.73 1.893s-.183 1.544-.183 3.088v1.447c0 1.544.183 3.087.183 3.087s.18 1.315.73 1.894c.699.76 1.616.736 2.024.815 1.47.147 6.243.192 6.243.192s3.858-.006 6.427-.2c.36-.044 1.142-.047 1.84-.807.55-.58.73-1.894.73-1.894s.183-1.543.183-3.087v-1.447c0-1.544-.183-3.088-.183-3.088z" fill="#FFF"/><path fill="#CE1312" d="M15.317 20.266v-5.36l4.96 2.69z"/></g></symbol></svg>